Coordinates
version=1
nRows=6
nColumns=63
inDegrees=yes

Units are S.I. units (second, meters, Newtons, ...)
If the header above contains a line with 'inDegrees', this indicates whether rotational values are in degrees (yes) or radians (no).

endheader
time	pelvis_tilt	pelvis_list	pelvis_rotation	pelvis_tx	pelvis_ty	pelvis_tz	hip_flexion_r	hip_adduction_r	hip_rotation_r	knee_angle_r	knee_angle_r_beta	ankle_angle_r	subtalar_angle_r	mtp_angle_r	hip_flexion_l	hip_adduction_l	hip_rotation_l	knee_angle_l	knee_angle_l_beta	ankle_angle_l	subtalar_angle_l	mtp_angle_l	L5_S1_Flex_Ext	L5_S1_Lat_Bending	L5_S1_axial_rotation	L4_L5_Flex_Ext	L4_L5_Lat_Bending	L4_L5_axial_rotation	L3_L4_Flex_Ext	L3_L4_Lat_Bending	L3_L4_axial_rotation	L2_L3_Flex_Ext	L2_L3_Lat_Bending	L2_L3_axial_rotation	L1_L2_Flex_Ext	L1_L2_Lat_Bending	L1_L2_axial_rotation	L1_T12_Flex_Ext	L1_T12_Lat_Bending	L1_T12_axial_rotation	Abs_r3	Abs_r2	Abs_r1	Abs_t1	Abs_t2	neck_flexion	neck_bending	neck_rotation	arm_flex_r	arm_add_r	arm_rot_r	elbow_flex_r	pro_sup_r	wrist_flex_r	wrist_dev_r	arm_flex_l	arm_add_l	arm_rot_l	elbow_flex_l	pro_sup_l	wrist_flex_l	wrist_dev_l
1.830189	-0.234884	3.422448	90.302425	0.290851	0.801191	0.558866	-14.361091	0.584234	11.288968	0.568818	0.009928	27.558405	-4.933305	0.000000	-13.138592	-0.926321	13.943834	1.003072	0.017507	26.924700	-12.281804	0.000000	-0.626694	0.022081	-0.512266	-1.163833	0.029368	-0.544282	-1.029595	0.053688	-0.544282	-0.716248	0.053688	-0.448233	-0.581948	0.045028	-0.416216	-0.358093	0.034204	-0.384199	-4.476411	0.249786	-2.849069	0.000000	0.000000	-0.932179	-2.917681	0.625651	-9.870277	-15.577712	3.663365	60.383405	88.284224	-9.113464	7.996281	-15.668577	-16.041923	-5.316234	59.867869	84.242925	-2.678969	7.523714
1.849057	-0.324717	3.397121	90.265767	0.291180	0.801351	0.559724	-14.268006	0.504017	11.123224	0.602875	0.010522	27.630682	-4.709761	0.000000	-13.011794	-0.812127	13.394852	1.067831	0.018637	27.090300	-11.709200	0.000000	-0.634929	0.005545	-0.487131	-1.179127	0.007375	-0.517577	-1.043125	0.013483	-0.517577	-0.725661	0.013483	-0.426240	-0.589595	0.011308	-0.395794	-0.362799	0.008590	-0.365349	-4.535236	0.062729	-2.709278	0.000000	0.000000	-1.457218	-3.307788	0.697993	-9.822481	-15.455932	3.535400	60.245875	88.260433	-9.210089	7.548582	-15.640463	-15.975090	-5.607713	60.181866	84.044920	-2.805303	7.629152
1.867925	-0.403967	3.374474	90.264357	0.291429	0.801484	0.560498	-14.190377	0.442281	11.062297	0.622144	0.010858	27.664175	-4.677053	0.000000	-12.900618	-0.719519	13.077360	1.107588	0.019331	27.203116	-11.347238	0.000000	-0.640840	-0.010023	-0.467390	-1.190105	-0.013330	-0.496602	-1.052837	-0.024370	-0.496602	-0.732417	-0.024370	-0.408966	-0.595084	-0.020439	-0.379754	-0.366176	-0.015525	-0.350543	-4.577459	-0.113380	-2.599483	0.000000	0.000000	-1.959417	-3.703522	0.762283	-9.786756	-15.353774	3.433508	60.118732	88.268573	-9.371877	7.148390	-15.628455	-15.906233	-5.872318	60.462875	83.971671	-2.991273	7.642124
1.886792	-0.471016	3.345922	90.299569	0.291594	0.801592	0.561215	-14.110905	0.399939	10.944522	0.639564	0.011162	27.700293	-4.611866	0.000000	-12.778764	-0.651303	12.752347	1.158984	0.020228	27.354928	-10.862892	0.000000	-0.642881	-0.024316	-0.453583	-1.193894	-0.032340	-0.481932	-1.056189	-0.059122	-0.481932	-0.734748	-0.059122	-0.396885	-0.596979	-0.049585	-0.368536	-0.367342	-0.037665	-0.340187	-4.592033	-0.275066	-2.522692	0.000000	0.000000	-2.436852	-4.086887	0.813323	-9.757287	-15.258922	3.324876	59.998862	88.288049	-9.512378	6.817547	-15.636086	-15.825945	-6.167699	60.720225	83.999593	-3.058370	7.660898
1.905660	-0.520489	3.314347	90.362984	0.291663	0.801682	0.561873	-14.034036	0.379898	10.904844	0.650515	0.011354	27.676613	-4.707650	0.000000	-12.655491	-0.608956	12.488254	1.208000	0.021084	27.511800	-10.379721	0.000000	-0.641602	-0.035841	-0.441512	-1.191519	-0.047668	-0.469107	-1.054088	-0.087143	-0.469107	-0.733287	-0.087143	-0.386323	-0.595792	-0.073087	-0.358729	-0.366611	-0.055517	-0.331134	-4.582899	-0.405439	-2.455559	0.000000	0.000000	-2.882179	-4.461094	0.836492	-9.749227	-15.177794	3.194312	59.912857	88.309907	-9.663957	6.588525	-15.650342	-15.772549	-6.382111	60.958684	84.116867	-3.148918	7.675784
1.924528	-0.554205	3.259703	90.468771	0.291620	0.801735	0.562478	-13.932936	0.383419	10.872992	0.668553	0.011668	27.610504	-4.885246	0.000000	-12.493739	-0.592797	12.257627	1.283901	0.022408	27.712478	-9.829273	0.000000	-0.634646	-0.044618	-0.436017	-1.178602	-0.059342	-0.463268	-1.042661	-0.108484	-0.463268	-0.725337	-0.108484	-0.381515	-0.589333	-0.090985	-0.354264	-0.362637	-0.069113	-0.327013	-4.533216	-0.504727	-2.424995	0.000000	0.000000	-3.279290	-4.806077	0.859932	-9.750675	-15.113990	3.063746	59.838834	88.295387	-9.798955	6.426786	-15.687615	-15.747715	-6.534884	61.189101	84.274913	-3.227863	7.702223
